<svg xmlns="http://www.w3.org/2000/svg" viewBox="205.23 86.105 116.00000000000003 30.999999999999986" width="4048" height="2500"><g fill="currentColor"><path d="M220.597 97.597c2.724.989 4.169 3.274 4.169 5.832 0 4.331-2.858 6.957-8.339 6.957H205.23V86.105h10.828c5.211 0 7.733 2.694 7.733 6.275 0 2.387-1.076 4.126-3.194 5.217zm-4.876-7.707h-5.951v6.343h5.951c2.32 0 3.565-1.227 3.565-3.274 0-1.875-1.278-3.069-3.565-3.069zm-5.951 16.677h6.422c2.556 0 3.934-1.194 3.934-3.342 0-2.251-1.311-3.377-3.934-3.377h-6.422v6.719zM231.06 110.386h-4.236V86.105h4.236v24.281zM245.108 102.645v-9.856h4.237v17.597h-4.103v-2.557c-1.311 1.978-3.127 2.967-5.447 2.967-3.665 0-6.052-2.251-6.052-6.344V92.789h4.236v10.947c0 2.217 1.076 3.342 3.262 3.342 2.051 0 3.867-1.534 3.867-4.433zM268.629 101.895v1.023H255.65c.303 3.035 1.95 4.535 4.506 4.535 1.95 0 3.261-.852 3.968-2.523h4.068c-.908 3.581-3.934 5.866-8.07 5.866-2.589 0-4.674-.853-6.254-2.524-1.58-1.671-2.387-3.888-2.387-6.684 0-2.763.773-4.98 2.353-6.685 1.581-1.671 3.632-2.523 6.221-2.523 2.623 0 4.707.886 6.254 2.626 1.547 1.739 2.32 4.058 2.32 6.889zm-8.608-6.173c-2.32 0-3.934 1.364-4.337 4.195h8.709c-.37-2.558-1.917-4.195-4.372-4.195zM278.02 110.864c-5.044 0-7.701-2.012-7.936-6.071h4.136c.235 2.183 1.311 3.001 3.867 3.001 2.286 0 3.43-.716 3.43-2.114 0-1.262-.807-1.876-3.397-2.319l-1.983-.341c-3.8-.648-5.683-2.421-5.683-5.32 0-3.308 2.589-5.32 7.196-5.32 4.943 0 7.498 1.978 7.666 5.968h-4.001c-.101-2.149-1.345-2.899-3.665-2.899-2.018 0-3.027.682-3.027 2.046 0 1.228.875 1.774 2.892 2.149l2.186.341c4.203.784 6.019 2.353 6.019 5.354 0 3.547-2.825 5.525-7.7 5.525zM304.315 110.386h-4.842l-5.044-8.185-2.622 2.661v5.524h-4.17V86.105h4.17v13.982l7.061-7.298h5.043l-6.556 6.65 6.96 10.947z"/><path d="M315.379 97.222l1.413-4.433h4.438l-6.691 19.03c-.706 1.944-1.581 3.342-2.69 4.126-1.11.785-2.69 1.16-4.775 1.16-.706 0-1.311-.034-1.849-.103v-3.376h1.614c1.916 0 2.858-1.194 2.858-2.83 0-.819-.269-2.013-.807-3.547l-5.044-14.46h4.573l1.412 4.399a166.136 166.136 0 0 1 2.757 9.822c.74-2.796 1.682-6.07 2.791-9.788z"/></g></svg>