<?xml version="1.0" standalone="no"?>
<!DOCTYPE svg PUBLIC "-//W3C//DTD SVG 20010904//EN"
 "http://www.w3.org/TR/2001/REC-SVG-20010904/DTD/svg10.dtd">
<svg version="1.0" xmlns="http://www.w3.org/2000/svg"
 width="2500.000000pt" height="597.000000pt" viewBox="0 0 2500.000000 597.000000"
 preserveAspectRatio="xMidYMid meet">

<g transform="translate(0.000000,597.000000) scale(0.100000,-0.100000)"
fill="#000000" stroke="none">
<path d="M4005 5939 c-18 -19 -18 -21 -1 -53 15 -27 16 -38 6 -56 -10 -18 -17
-21 -49 -15 -36 6 -40 4 -60 -31 -27 -45 -23 -59 18 -67 22 -5 31 -12 31 -26
0 -28 -34 -45 -50 -26 -17 20 -54 19 -72 -2 -33 -39 -90 -142 -86 -158 3 -16
136 -72 216 -92 33 -8 52 14 52 61 0 23 4 67 10 97 5 30 17 110 26 179 29 231
29 210 2 210 -14 0 -33 -9 -43 -21z"/>
<path d="M2286 5822 c-9 -14 6 -52 20 -52 10 0 11 6 3 30 -12 32 -15 35 -23
22z"/>
<path d="M2848 5824 c-3 -5 -5 -53 -4 -106 1 -101 12 -132 36 -103 10 12 10
25 1 62 -7 25 -9 63 -6 82 6 35 -15 86 -27 65z"/>
<path d="M3396 5803 c-9 -10 -7 -73 3 -73 18 0 29 64 12 74 -4 3 -11 3 -15 -1z"/>
<path d="M3372 5668 c-18 -18 -16 -88 3 -88 8 0 15 1 15 3 0 1 4 16 9 34 11
39 -6 72 -27 51z"/>
<path d="M2320 5635 c0 -35 30 -107 44 -102 14 5 12 59 -4 98 -15 36 -40 39
-40 4z"/>
<path d="M1750 5633 c0 -10 7 -28 15 -39 14 -18 14 -18 15 7 0 15 -7 32 -15
39 -12 10 -15 9 -15 -7z"/>
<path d="M1820 5464 c0 -20 45 -104 56 -104 21 0 17 54 -7 84 -18 23 -49 36
-49 20z"/>
<path d="M2768 5444 c-14 -14 -8 -24 18 -34 21 -8 24 -13 15 -24 -8 -9 -46
-16 -115 -21 -87 -6 -107 -5 -128 9 -32 21 -118 31 -138 16 -13 -9 -12 -13 9
-31 32 -26 21 -36 -65 -59 -62 -16 -72 -16 -98 -3 -37 19 -111 22 -128 5 -11
-11 -9 -17 10 -32 30 -25 23 -34 -44 -59 -50 -19 -57 -20 -91 -6 -59 25 -113
18 -113 -15 0 -10 7 -20 15 -24 26 -10 16 -30 -25 -53 -41 -24 -85 -30 -95
-13 -11 18 -76 8 -104 -16 -3 -2 6 -16 20 -30 l24 -26 -24 -19 c-33 -27 -69
-34 -104 -21 -23 9 -36 8 -58 -4 -33 -17 -37 -39 -12 -67 17 -18 17 -20 -10
-43 -30 -25 -52 -30 -62 -14 -9 15 -58 12 -83 -6 -25 -17 -29 -52 -7 -60 21
-8 19 -27 -5 -49 -14 -13 -28 -16 -54 -11 -24 5 -45 2 -65 -8 -39 -21 -46 -44
-21 -71 26 -27 25 -41 -1 -55 -16 -9 -28 -9 -51 1 -29 12 -33 11 -59 -19 -35
-39 -36 -56 -8 -76 14 -10 19 -21 15 -32 -5 -14 -15 -16 -51 -11 -42 6 -46 4
-70 -27 -30 -40 -32 -67 -5 -84 34 -21 24 -35 -20 -29 -37 5 -43 2 -70 -31
-35 -42 -38 -77 -10 -94 29 -19 24 -31 -9 -25 -38 8 -62 -13 -85 -73 -10 -25
-23 -54 -29 -65 -66 -121 -143 -352 -178 -529 -75 -388 -58 -801 46 -1161 39
-136 130 -358 193 -470 255 -458 526 -733 982 -997 446 -259 1046 -357 1605
-261 616 105 1171 456 1547 978 309 430 465 929 457 1470 -9 629 -275 1246
-731 1696 -111 110 -170 149 -228 149 -40 0 -102 28 -150 69 -42 35 -35 48 15
27 46 -20 55 -20 55 -2 0 29 -243 171 -441 257 -164 71 -444 151 -612 174 -43
6 -48 5 -45 -11 2 -10 17 -22 35 -27 18 -5 34 -16 38 -25 5 -13 -5 -14 -67 -8
-40 4 -120 11 -178 16 -81 7 -119 15 -165 36 -59 28 -172 44 -187 28z m497
-153 c481 -72 818 -216 1171 -499 361 -288 650 -735 768 -1185 36 -137 44
-184 61 -333 27 -245 15 -501 -36 -745 -25 -121 -107 -368 -155 -465 -19 -39
-32 -78 -29 -86 4 -10 -4 -23 -18 -35 -14 -10 -34 -38 -47 -62 l-21 -43 21
-23 c29 -31 17 -49 -25 -41 -28 6 -36 2 -54 -20 -33 -42 -35 -63 -10 -90 20
-21 21 -27 9 -35 -8 -5 -30 -7 -48 -4 -28 5 -37 1 -62 -26 -35 -37 -37 -54
-10 -71 11 -7 20 -18 20 -24 0 -17 -46 -37 -69 -29 -32 10 -60 -3 -77 -37 -15
-28 -14 -31 5 -45 25 -17 26 -26 5 -48 -12 -12 -27 -15 -53 -10 -44 7 -86 -7
-100 -34 -9 -16 -7 -24 11 -40 l22 -21 -24 -25 c-26 -27 -46 -31 -83 -14 -19
9 -31 7 -56 -5 -35 -19 -38 -31 -15 -57 21 -24 13 -44 -27 -64 -25 -13 -37
-15 -56 -6 -37 17 -78 13 -98 -9 -17 -19 -17 -21 -2 -38 26 -29 21 -39 -30
-62 -46 -20 -49 -21 -79 -5 -59 31 -127 -2 -90 -44 22 -25 21 -28 -24 -51 -47
-24 -81 -25 -122 -4 -26 13 -38 14 -70 5 -43 -13 -45 -17 -22 -43 24 -26 6
-43 -70 -63 -61 -17 -64 -17 -104 4 -44 22 -97 27 -122 11 -13 -9 -11 -13 10
-30 30 -23 22 -33 -40 -48 -103 -26 -122 -25 -192 8 -53 25 -77 30 -119 28
-59 -3 -76 -22 -34 -38 24 -9 25 -12 14 -27 -12 -14 -32 -15 -145 -10 -119 5
-137 8 -190 34 -80 40 -155 66 -314 108 -244 65 -426 138 -584 232 -71 43
-220 103 -255 103 -32 0 -101 45 -101 66 0 12 7 14 30 9 54 -12 34 17 -91 130
-118 106 -160 153 -285 320 -251 332 -403 732 -444 1164 -39 403 43 838 224
1201 55 109 148 267 194 329 219 294 442 494 739 664 261 149 665 273 943 289
100 6 389 -1 455 -11z m1815 -3340 c0 -6 -4 -13 -10 -16 -5 -3 -10 1 -10 9 0
9 5 16 10 16 6 0 10 -4 10 -9z"/>
<path d="M2707 5107 c-28 -12 -28 -13 -10 -29 10 -9 38 -21 62 -27 57 -13 70
-26 48 -49 -15 -14 -35 -17 -122 -16 -93 2 -111 5 -156 28 -39 21 -62 26 -102
24 -65 -4 -71 -27 -12 -46 22 -7 46 -19 54 -27 21 -21 -23 -42 -106 -50 -65
-6 -77 -5 -110 15 -43 25 -107 30 -128 9 -20 -20 -7 -35 40 -45 77 -18 38 -70
-60 -82 -30 -3 -50 1 -75 17 -40 24 -88 27 -115 7 -26 -19 -13 -44 29 -51 64
-12 55 -55 -15 -77 -35 -10 -45 -9 -89 12 -48 23 -52 23 -85 7 -49 -24 -47
-53 5 -67 52 -14 59 -28 26 -57 -33 -28 -65 -29 -114 -4 -35 18 -39 18 -72 2
-47 -22 -49 -61 -4 -73 48 -12 60 -32 35 -57 -25 -25 -59 -27 -87 -6 -29 22
-66 18 -97 -10 -34 -33 -34 -53 1 -65 65 -23 75 -41 37 -66 -26 -17 -28 -17
-70 6 -42 23 -44 23 -70 6 -30 -19 -50 -58 -42 -79 3 -8 22 -18 42 -21 41 -8
55 -30 33 -52 -12 -13 -20 -12 -60 6 -54 24 -70 20 -98 -25 -29 -46 -26 -73 8
-81 46 -10 52 -13 52 -28 0 -24 -17 -28 -49 -11 -17 8 -39 15 -50 15 -25 0
-71 -65 -71 -101 0 -15 -7 -32 -16 -40 -41 -34 -131 -288 -170 -478 -34 -171
-48 -474 -28 -644 50 -428 199 -786 464 -1115 377 -468 953 -751 1568 -769
218 -7 332 6 612 67 115 25 376 132 500 204 447 262 790 677 943 1142 93 280
112 407 111 714 -2 232 -3 252 -32 380 -54 244 -90 347 -197 562 -96 191 -239
391 -372 519 -72 70 -120 95 -215 110 -69 11 -143 41 -198 79 -14 10 -61 32
-105 50 -44 18 -84 37 -90 42 -19 17 110 -5 155 -27 139 -69 242 -107 253 -96
14 14 5 22 -133 114 -134 90 -231 140 -335 172 -49 16 -160 52 -245 81 -191
64 -256 81 -354 90 -64 6 -76 4 -76 -8 0 -10 43 -31 133 -63 114 -42 166 -69
153 -82 -1 -2 -25 1 -52 6 -82 16 -234 41 -337 56 -54 7 -110 21 -124 30 -32
21 -148 65 -171 65 -9 -1 -30 -6 -45 -13z m237 -162 c69 -15 363 -109 576
-186 63 -22 183 -65 265 -94 175 -62 372 -137 433 -165 23 -11 48 -20 54 -20
6 0 32 -13 57 -29 25 -16 62 -32 81 -36 54 -11 94 -35 81 -48 -7 -7 -18 -7
-36 1 -14 7 -40 12 -56 12 -47 0 -276 70 -500 154 -52 19 -175 64 -274 100
-99 36 -225 84 -280 105 -55 21 -166 64 -247 94 -162 62 -248 102 -248 117 0
13 12 12 94 -5z m-301 -70 c100 -27 471 -150 797 -265 113 -39 264 -92 335
-116 72 -25 139 -49 150 -53 11 -5 49 -19 85 -31 107 -37 270 -99 355 -137
274 -121 323 -153 234 -153 -45 0 -71 7 -319 90 -153 51 -240 81 -530 185 -36
13 -114 42 -175 65 -60 23 -157 59 -215 80 -58 20 -148 54 -200 74 -52 21
-165 64 -250 96 -175 66 -369 147 -387 162 -19 15 -16 28 7 28 11 0 62 -11
113 -25z m985 -1 c112 -37 222 -84 222 -95 0 -14 -10 -12 -131 30 -140 49
-186 68 -194 81 -10 16 22 12 103 -16z m-1193 -110 c600 -192 937 -304 1180
-392 61 -21 187 -67 280 -100 246 -88 648 -244 735 -286 93 -44 129 -71 114
-85 -18 -19 -118 7 -474 125 -565 188 -920 321 -1495 557 -60 25 -182 73 -270
107 -177 67 -205 80 -205 92 0 15 55 8 135 -18z m-280 -85 c32 -12 70 -19 87
-17 22 4 71 -12 172 -54 77 -32 193 -75 256 -95 63 -19 131 -46 150 -58 19
-13 80 -35 135 -50 96 -25 275 -81 360 -112 80 -30 472 -166 560 -194 87 -29
155 -55 520 -199 94 -37 192 -73 219 -79 27 -7 61 -20 75 -30 14 -10 51 -29
81 -43 57 -25 90 -51 90 -70 0 -10 -14 -9 -135 7 -43 6 -53 4 -69 -14 -15 -17
-16 -23 -6 -36 7 -8 18 -15 24 -15 21 0 200 -90 224 -113 35 -32 28 -47 -22
-47 -23 0 -56 4 -72 9 -177 57 -346 101 -360 93 -22 -12 -8 -21 106 -67 52
-21 154 -65 225 -97 165 -76 199 -105 160 -138 -19 -16 -63 -7 -237 46 -118
36 -163 39 -138 9 6 -8 37 -24 68 -35 102 -38 297 -137 321 -163 54 -59 -19
-62 -214 -8 -77 21 -143 37 -147 34 -19 -11 -4 -26 50 -50 169 -76 289 -136
309 -155 47 -44 19 -64 -65 -48 -67 12 -228 55 -268 71 -30 12 -64 8 -64 -8 0
-5 51 -30 113 -57 188 -82 285 -139 287 -168 0 -4 -9 -12 -19 -18 -23 -12
-112 7 -316 69 -98 29 -133 36 -144 28 -10 -9 -8 -14 15 -24 16 -7 65 -29 109
-49 44 -20 101 -44 128 -55 120 -48 198 -103 182 -130 -10 -15 -131 -5 -177
15 -18 8 -115 39 -215 69 -151 44 -183 51 -183 38 0 -11 35 -30 113 -60 255
-101 427 -186 427 -211 0 -6 -10 -15 -23 -21 -37 -17 -145 12 -602 162 -100
32 -184 59 -188 59 -4 0 -7 -6 -7 -14 0 -8 30 -25 73 -41 209 -79 507 -199
570 -231 108 -54 127 -75 84 -95 -39 -18 -191 26 -764 224 -49 16 -66 18 -75
9 -8 -8 -9 -15 -2 -22 6 -6 93 -42 195 -81 434 -165 539 -210 572 -247 50 -55
-36 -55 -208 -2 -169 53 -398 130 -504 169 -86 32 -121 33 -121 2 0 -13 30
-28 118 -60 246 -90 301 -111 420 -160 154 -63 212 -97 212 -122 0 -50 -183
-1 -717 191 -69 25 -96 22 -91 -12 3 -24 8 -27 213 -102 329 -120 455 -175
484 -209 10 -13 9 -18 -9 -27 -32 -17 -146 13 -440 116 -262 92 -313 103 -318
68 -4 -31 15 -42 156 -89 175 -59 377 -139 439 -175 62 -36 63 -60 3 -60 -47
0 -408 114 -533 169 -67 29 -104 28 -119 -4 -17 -37 1 -50 118 -89 181 -60
414 -157 424 -176 8 -15 6 -20 -10 -25 -44 -14 -246 41 -435 120 -114 46 -133
47 -155 5 -20 -38 3 -55 137 -99 131 -43 285 -110 296 -129 4 -5 1 -15 -7 -21
-21 -18 -251 45 -435 118 -30 12 -75 26 -102 32 -90 19 -240 159 -171 159 11
0 53 -16 95 -35 62 -29 80 -33 101 -25 20 7 26 16 26 40 0 35 -2 36 -155 80
-54 16 -110 37 -124 48 -29 21 -56 91 -41 106 9 9 95 -23 287 -105 51 -22 53
-22 73 -4 23 21 26 57 6 75 -8 6 -37 18 -63 25 -124 34 -232 69 -288 91 -53
21 -63 30 -75 62 -7 20 -15 43 -17 50 -10 26 73 12 167 -28 51 -22 98 -40 104
-40 6 0 51 -18 101 -40 49 -22 97 -40 107 -40 10 0 24 12 30 26 16 34 2 55
-47 72 -50 17 -65 29 -65 57 0 42 24 50 84 27 53 -20 55 -20 71 -2 30 33 16
62 -39 82 -70 25 -79 42 -43 83 l22 26 52 -22 c58 -25 83 -17 83 26 0 27 -15
41 -56 49 -45 10 -67 37 -55 68 17 44 31 49 85 25 55 -23 79 -16 84 25 3 26
-28 48 -68 48 -24 0 -50 26 -50 50 0 10 9 28 19 41 l19 24 56 -24 c46 -19 59
-21 72 -10 35 29 6 63 -71 86 -37 10 -45 49 -17 83 l19 24 61 -18 c62 -19 82
-16 82 12 0 30 -15 42 -66 55 -42 10 -49 16 -52 38 -2 17 6 37 21 54 l23 28
48 -22 c53 -23 86 -16 86 18 0 18 -61 51 -94 51 -30 0 -34 57 -7 91 l19 24 55
-19 c66 -22 90 -17 78 16 -5 16 -23 28 -57 39 -44 14 -49 19 -52 48 -4 36 20
81 44 81 8 0 33 -9 55 -20 30 -16 44 -18 59 -10 11 6 20 15 20 20 0 14 -42 40
-66 40 -12 0 -32 8 -45 18 -21 18 -22 21 -9 66 7 26 19 50 27 53 7 3 36 -5 64
-17 53 -22 79 -21 79 4 0 19 -23 31 -71 40 -21 4 -42 13 -49 21 -16 19 -4 71
27 117 14 21 22 42 17 49 -4 7 -9 28 -11 48 -5 46 -33 75 -110 113 -57 28 -82
55 -75 82 2 5 -7 19 -19 32 -16 17 -29 22 -49 18 -16 -4 -47 2 -76 15 -27 11
-103 40 -169 64 -261 97 -622 240 -660 262 -22 13 -53 25 -70 27 -25 2 -31 -1
-33 -19 -2 -12 4 -37 12 -55 15 -31 23 -35 124 -63 99 -27 351 -108 687 -223
l140 -48 1 -42 c1 -47 16 -64 74 -83 56 -19 121 -60 130 -83 17 -45 -11 -147
-150 -546 -43 -124 -99 -281 -125 -350 -26 -69 -54 -151 -62 -182 -9 -31 -24
-66 -34 -77 -11 -11 -19 -33 -19 -48 0 -16 -10 -49 -22 -73 -22 -44 -24 -45
-65 -42 -34 3 -43 0 -43 -12 0 -10 9 -16 25 -16 43 0 50 -39 20 -111 -13 -34
-30 -86 -37 -116 -7 -31 -18 -58 -25 -60 -6 -3 -62 13 -125 36 -62 22 -127 42
-143 46 -57 11 -93 41 -105 86 -19 69 -7 69 149 6 180 -73 221 -75 186 -7 -19
37 -45 49 -206 95 -174 51 -183 56 -203 138 -13 53 22 45 236 -52 37 -17 77
-31 88 -31 25 0 26 28 5 74 -15 32 -22 35 -154 69 -210 56 -230 67 -246 145
-5 25 -3 33 10 38 17 7 171 -52 242 -92 23 -13 54 -24 69 -24 25 0 26 2 20 33
-13 64 -34 80 -152 109 -121 30 -202 56 -222 71 -7 6 -22 30 -33 55 -37 81 -8
79 196 -11 110 -48 145 -56 145 -33 0 23 -26 82 -40 91 -6 4 -59 20 -118 35
-212 57 -240 72 -261 148 -8 26 -7 34 5 39 16 6 134 -38 242 -89 76 -36 98
-34 94 7 -5 43 -28 74 -60 80 -88 19 -233 61 -272 79 -35 16 -50 32 -68 68
-43 86 -18 87 163 8 174 -75 183 -76 164 -6 -12 44 -27 52 -174 90 -178 47
-207 64 -235 133 -16 43 -7 67 22 57 13 -3 85 -33 161 -65 75 -33 142 -59 147
-59 6 0 10 13 10 29 0 49 -35 75 -140 105 -247 72 -262 80 -276 159 -9 50 1
49 166 -19 155 -64 175 -70 184 -56 4 6 -1 29 -10 51 -15 37 -21 42 -73 57
-89 25 -233 71 -273 88 -28 12 -40 25 -54 61 -32 84 -2 83 196 -6 112 -50 138
-56 146 -34 4 9 0 32 -9 50 -15 31 -25 36 -119 65 -285 86 -398 127 -399 143
-4 41 20 87 45 87 11 0 239 -89 325 -127 78 -34 107 -19 80 41 -13 29 -12 28
-235 101 -95 30 -176 61 -181 68 -6 6 -20 31 -33 55 -40 71 -22 70 174 -8 98
-39 187 -70 199 -68 18 2 21 9 19 33 -3 34 -40 72 -80 81 -15 3 -124 38 -242
76 -148 49 -225 79 -245 97 -17 15 -59 37 -93 49 -37 14 -62 29 -62 38 0 21
49 18 115 -7z m-157 -119 c73 -25 115 -72 78 -86 -22 -9 -167 48 -201 78 l-30
27 48 1 c26 0 73 -9 105 -20z m20 -184 c281 -92 281 -92 289 -111 8 -23 -14
-65 -34 -65 -10 0 -132 45 -272 99 -237 93 -309 130 -294 154 10 16 73 0 311
-77z m-40 -167 c263 -88 272 -92 272 -117 0 -14 -7 -33 -16 -43 -20 -22 -36
-17 -231 62 -81 33 -197 79 -258 101 -135 51 -191 84 -176 102 16 19 88 1 409
-105z m-163 -129 c171 -55 318 -100 327 -100 9 0 26 -9 39 -19 23 -19 23 -20
6 -55 -10 -22 -24 -36 -35 -36 -10 0 -59 17 -108 39 -49 21 -118 48 -154 60
-128 43 -395 152 -419 170 -27 20 -21 41 11 41 11 0 161 -45 333 -100z m592
-7 c35 -8 48 -32 48 -92 0 -37 10 -78 28 -123 15 -36 28 -77 29 -90 3 -20 -1
-23 -36 -24 -72 -1 -71 -57 3 -70 20 -3 47 -13 59 -21 27 -16 52 -70 52 -108
0 -25 -2 -26 -32 -20 -18 4 -59 21 -91 37 -35 17 -66 27 -78 23 -40 -13 -10
-85 35 -85 37 0 170 -41 190 -58 38 -34 64 -142 34 -142 -7 0 -77 30 -156 67
-111 51 -148 64 -161 56 -21 -13 -26 -56 -8 -71 7 -6 80 -29 163 -50 186 -49
200 -55 217 -89 20 -39 37 -102 31 -117 -5 -14 -68 10 -314 118 -117 51 -154
57 -170 25 -17 -30 11 -56 79 -75 100 -28 295 -85 321 -94 14 -5 44 -14 68
-20 38 -10 46 -17 62 -53 23 -52 35 -113 23 -120 -4 -2 -44 10 -88 28 -44 18
-154 63 -245 100 -90 37 -177 73 -193 82 -42 21 -81 14 -85 -17 -4 -38 9 -49
79 -69 35 -10 156 -48 269 -85 113 -36 216 -66 230 -66 40 -1 71 -33 95 -99
19 -52 20 -62 8 -73 -11 -9 -25 -7 -66 11 -29 12 -159 65 -289 117 -130 51
-262 105 -292 118 -49 22 -56 23 -76 9 -14 -10 -20 -23 -18 -41 3 -25 13 -30
148 -75 316 -104 556 -179 577 -179 31 -1 60 -35 82 -100 30 -88 23 -90 -131
-29 -73 28 -149 59 -168 68 -19 8 -75 30 -125 48 -147 54 -276 105 -327 131
-64 32 -96 32 -109 -3 -20 -54 -13 -59 166 -111 39 -12 176 -56 305 -100 129
-43 273 -89 320 -102 47 -13 92 -31 101 -39 20 -20 61 -129 54 -142 -10 -15
-28 -11 -101 22 -38 18 -152 62 -254 100 -269 99 -487 183 -551 212 -51 23
-58 24 -78 11 -24 -18 -28 -65 -7 -83 8 -7 62 -25 120 -41 58 -15 253 -78 433
-138 180 -61 353 -118 384 -126 30 -9 63 -24 73 -35 20 -22 49 -109 40 -122
-9 -15 -39 -10 -91 12 -60 27 -119 50 -253 98 -58 22 -125 48 -150 60 -25 11
-108 44 -185 72 -77 28 -187 73 -245 99 -146 66 -144 66 -169 34 -27 -34 -26
-47 2 -77 16 -19 69 -38 212 -81 267 -79 894 -291 909 -307 7 -8 21 -36 31
-62 22 -61 11 -78 -38 -58 -94 38 -465 177 -547 206 -52 19 -140 52 -195 75
-155 64 -166 66 -187 40 -37 -45 -13 -71 87 -96 39 -10 174 -54 300 -99 127
-45 309 -108 405 -140 96 -32 185 -62 198 -67 23 -8 61 -77 62 -110 0 -27 -23
-22 -155 28 -66 25 -156 58 -200 74 -97 34 -586 215 -708 262 -48 19 -95 42
-104 51 -15 15 -14 19 15 52 18 20 32 39 32 43 0 20 -30 43 -89 67 -86 36
-104 48 -129 94 -17 31 -19 40 -8 44 13 5 36 78 36 118 0 12 12 46 26 75 14
30 24 65 22 81 -3 25 -9 29 -52 40 -53 13 -82 34 -72 52 11 17 42 13 86 -9 51
-26 57 -25 75 10 33 63 13 110 -47 110 -28 0 -48 17 -48 41 0 30 20 32 72 8
l50 -23 25 28 c17 20 23 38 21 59 -3 26 -9 32 -50 46 -62 21 -73 33 -58 60 12
23 36 22 75 -5 40 -28 79 -6 91 53 7 35 1 41 -65 58 -42 10 -46 14 -46 41 0
35 28 43 74 20 49 -26 70 -21 87 20 18 43 8 59 -39 69 -37 8 -77 31 -77 45 0
6 9 19 20 30 l20 20 40 -20 c69 -35 100 -20 100 49 0 26 -5 31 -37 40 -21 6
-44 11 -51 11 -7 0 -17 11 -24 25 -8 19 -8 28 2 41 15 17 43 15 97 -7 28 -12
34 -11 53 6 13 12 20 28 18 44 -2 21 -13 29 -55 45 -47 16 -53 22 -53 46 0 44
23 56 69 36 45 -21 79 -18 95 7 16 24 -2 49 -50 67 -21 8 -45 19 -52 23 -18
12 -15 41 7 68 19 23 19 23 55 6 45 -21 80 -22 95 -3 18 21 -2 53 -38 61 -17
3 -41 15 -55 26 -25 20 -25 21 -10 52 20 38 34 49 54 41 8 -4 25 -9 37 -11z
m-809 -104 c272 -93 474 -159 487 -159 7 0 23 -8 36 -19 21 -16 21 -21 10 -49
-7 -17 -19 -33 -26 -36 -12 -4 -633 231 -697 265 -36 18 -58 41 -52 51 10 16
87 -1 242 -53z m-410 -67 c2 -7 -6 -12 -17 -12 -21 0 -27 11 -14 24 9 9 26 2
31 -12z m417 -117 c138 -46 291 -95 340 -110 50 -15 100 -33 113 -41 28 -18
29 -55 1 -80 -19 -17 -23 -17 -62 -2 -682 261 -756 293 -716 319 20 13 47 6
324 -86z m15 -187 c184 -60 346 -113 359 -117 37 -11 47 -33 32 -69 -7 -17
-19 -33 -28 -36 -8 -3 -47 8 -86 25 -135 58 -282 117 -437 174 -215 80 -271
109 -255 134 10 18 78 -1 415 -111z m-24 -176 c340 -114 359 -121 362 -145 2
-16 -5 -34 -17 -46 l-21 -21 -67 26 c-109 42 -265 101 -375 143 -146 55 -279
110 -305 127 -13 8 -23 22 -23 31 0 28 67 10 446 -115z m-51 -166 c198 -66
343 -120 349 -129 15 -23 -5 -71 -30 -75 -11 -2 -132 42 -270 96 -137 54 -292
116 -344 136 -111 43 -140 61 -140 83 0 28 77 8 435 -111z m-320 -79 c33 -9
137 -43 230 -76 94 -32 213 -72 265 -87 111 -32 120 -38 120 -73 0 -61 -35
-64 -152 -17 -45 19 -159 65 -253 101 -300 117 -366 149 -352 172 7 11 44 6
142 -20z m-5 -183 c47 -15 183 -60 303 -100 119 -41 224 -74 232 -74 24 0 35
-33 22 -61 -18 -35 -46 -34 -129 1 -40 18 -138 56 -218 85 -304 113 -350 134
-350 161 0 21 45 17 140 -12z m202 -254 c147 -48 274 -93 282 -99 16 -13 11
-45 -10 -62 -11 -9 -37 -3 -122 28 -59 23 -163 62 -231 88 -184 69 -269 114
-255 137 9 14 46 4 336 -92z m-162 -132 c30 -11 126 -44 213 -73 88 -29 163
-57 168 -62 15 -15 -5 -56 -33 -71 -34 -19 -121 10 -148 48 -14 20 -44 35
-117 60 -147 49 -241 99 -227 122 8 13 76 1 144 -24z m596 -39 c42 -25 43 -39
4 -39 -54 0 -96 31 -73 53 12 12 35 7 69 -14z m-598 -145 c57 -17 72 -27 72
-52 0 -24 -30 -24 -83 -2 -58 25 -89 48 -81 61 8 13 29 11 92 -7z m554 -25
c71 -36 58 -56 -24 -36 -70 16 -91 29 -82 51 8 20 47 15 106 -15z m-232 -268
c113 -38 275 -95 360 -126 85 -30 243 -87 350 -124 107 -38 283 -100 390 -138
107 -39 283 -100 390 -137 107 -37 227 -80 265 -97 39 -16 148 -59 244 -95
230 -86 300 -122 285 -145 -15 -24 -291 55 -659 189 -44 16 -190 69 -325 117
-1221 437 -1640 599 -1640 634 0 29 82 10 340 -78z m75 -215 c212 -71 677
-235 1430 -504 348 -124 535 -203 535 -227 0 -14 -8 -15 -57 -10 -50 6 -286
75 -363 107 -14 5 -56 20 -95 33 -38 13 -115 39 -170 60 -55 20 -131 47 -170
60 -91 30 -441 158 -525 192 -68 27 -188 71 -351 128 -118 42 -407 159 -471
191 -27 14 -48 30 -48 38 0 21 68 5 285 -68z m-25 -187 c92 -20 201 -58 1110
-384 230 -82 509 -189 549 -209 48 -26 39 -40 -21 -33 -63 6 -394 114 -736
238 -136 50 -301 110 -367 134 -331 118 -605 234 -605 254 0 13 12 13 70 0z
m496 -358 c215 -71 594 -211 671 -247 74 -36 57 -50 -33 -28 -54 14 -510 173
-669 233 -68 26 -185 85 -185 93 0 16 39 7 216 -51z"/>
<path d="M2925 4130 c-3 -5 2 -26 12 -46 17 -35 24 -39 113 -66 100 -31 384
-124 559 -183 70 -23 108 -32 115 -25 19 19 34 12 -375 169 -130 50 -271 106
-314 126 -81 37 -100 41 -110 25z"/>
<path d="M3000 3915 c-15 -18 -5 -50 23 -68 12 -8 110 -40 217 -71 107 -32
235 -73 284 -92 92 -36 136 -43 136 -21 0 6 -66 36 -148 66 -81 30 -210 81
-287 114 -203 86 -211 88 -225 72z"/>
<path d="M3065 3690 c-17 -27 24 -48 199 -104 99 -32 205 -68 234 -79 46 -18
55 -19 62 -7 11 18 23 12 -249 120 -202 79 -234 89 -246 70z"/>
<path d="M4340 3685 c-9 -10 -10 -19 -3 -26 8 -8 110 -42 168 -55 31 -7 49 10
41 39 -5 20 -16 27 -70 41 -81 20 -120 20 -136 1z"/>
<path d="M4204 3648 c-8 -12 22 -38 44 -38 7 0 12 7 10 16 -4 21 -45 37 -54
22z"/>
<path d="M3135 3479 c-11 -17 25 -48 69 -60 23 -6 87 -26 144 -44 126 -42 136
-44 139 -25 2 11 -41 32 -157 78 -167 64 -184 69 -195 51z"/>
<path d="M3213 3264 c-3 -8 -2 -19 3 -24 10 -10 72 -33 159 -59 33 -10 67 -21
76 -25 16 -7 36 19 21 28 -12 7 -240 96 -246 96 -4 0 -9 -7 -13 -16z"/>
<path d="M3280 3051 c0 -18 44 -41 123 -66 89 -28 107 -30 107 -12 0 7 -42 29
-94 50 -94 37 -136 45 -136 28z"/>
<path d="M3360 2832 c0 -14 17 -24 68 -40 78 -26 92 -27 92 -8 0 14 -115 66
-145 66 -8 0 -15 -8 -15 -18z"/>
<path d="M3430 2626 c0 -7 6 -18 13 -23 16 -13 94 -32 102 -25 14 15 1 30 -42
45 -58 21 -73 21 -73 3z"/>
<path d="M4410 5409 c-10 -18 -9 -20 7 -17 10 2 19 11 21 21 5 24 -15 21 -28
-4z"/>
<path d="M4324 5284 c-13 -19 -14 -28 -5 -37 17 -17 45 4 49 37 4 34 -22 35
-44 0z"/>
<path d="M1330 5248 c0 -28 85 -143 108 -146 32 -5 28 16 -19 78 -40 55 -66
80 -81 80 -4 0 -8 -6 -8 -12z"/>
<path d="M4842 5078 c-16 -16 -15 -38 2 -38 13 0 26 20 26 41 0 13 -14 11 -28
-3z"/>
<path d="M4760 4987 c-32 -16 -39 -47 -11 -47 20 0 45 32 39 50 -2 5 -14 4
-28 -3z"/>
<path d="M990 4816 c0 -18 59 -68 73 -63 21 7 18 27 -7 52 -27 27 -66 34 -66
11z"/>
<path d="M5285 4720 c-3 -5 -2 -10 4 -10 5 0 13 5 16 10 3 6 2 10 -4 10 -5 0
-13 -4 -16 -10z"/>
<path d="M5110 4612 c-22 -10 -36 -26 -38 -39 -2 -13 -1 -23 3 -23 12 0 50 23
73 43 42 39 21 49 -38 19z"/>
<path d="M697 4393 c-12 -11 -8 -18 23 -36 31 -19 50 -16 50 8 0 24 -56 46
-73 28z"/>
<path d="M17610 4355 c-357 -61 -609 -196 -792 -424 -274 -343 -347 -791 -202
-1245 74 -231 220 -435 399 -557 233 -159 530 -249 820 -249 286 0 660 97 757
195 33 33 78 124 78 157 0 6 46 -34 103 -88 81 -78 120 -108 187 -141 172 -86
283 -108 525 -107 176 1 197 3 280 27 114 34 271 112 356 176 142 108 277 282
345 443 43 101 69 206 85 335 6 56 15 107 19 113 6 10 131 40 167 40 8 0 9 -8
3 -27 -13 -46 -360 -846 -381 -880 -28 -45 -82 -75 -147 -82 l-57 -6 -3 -47
-3 -48 320 0 321 0 0 50 0 50 -37 0 c-43 0 -155 25 -183 40 -18 10 -17 16 21
123 22 61 100 264 174 449 74 185 137 348 141 363 l6 25 132 0 c137 0 201 -11
272 -48 55 -28 108 -89 128 -148 19 -53 178 -466 233 -603 36 -91 42 -151 17
-171 -8 -8 -58 -18 -110 -24 l-94 -10 0 -47 0 -47 373 -5 c301 -3 391 -8 472
-22 71 -13 150 -18 270 -18 157 0 177 2 260 27 271 82 430 229 514 475 71 209
37 426 -87 550 -81 81 -175 120 -356 146 -131 19 -358 61 -404 74 -166 49
-236 202 -187 410 33 138 110 236 233 294 64 30 73 32 187 32 108 0 126 -3
185 -28 123 -53 183 -109 194 -185 3 -20 8 -72 11 -114 l7 -78 43 0 c49 0 49
0 60 115 6 58 21 195 30 262 4 31 1 34 -59 62 -114 55 -243 82 -416 88 -137 5
-166 3 -240 -16 -196 -49 -352 -167 -428 -324 -53 -109 -66 -170 -65 -302 2
-185 63 -321 185 -410 72 -54 146 -78 318 -105 261 -41 362 -61 394 -76 95
-49 141 -117 156 -237 33 -265 -130 -488 -387 -527 -132 -21 -298 19 -413 99
-74 51 -97 98 -111 229 -13 111 -11 109 -77 96 l-30 -6 -6 -127 c-11 -208 -16
-241 -35 -241 -27 0 -99 157 -304 665 -80 198 -199 491 -264 650 -66 160 -148
363 -184 452 l-64 163 -51 0 -52 0 -40 -92 c-22 -51 -78 -187 -125 -303 -113
-279 -130 -316 -158 -342 -25 -23 -112 -45 -225 -58 l-60 -7 -23 94 c-47 192
-124 339 -235 451 -206 210 -507 305 -875 277 -500 -38 -823 -325 -937 -832
-23 -100 -24 -354 -2 -463 23 -111 62 -232 114 -350 l44 -99 -28 -23 c-72 -59
-252 -136 -397 -169 -113 -26 -349 -26 -460 0 -382 89 -620 279 -751 599 -115
283 -123 649 -22 955 140 422 571 654 1058 568 213 -38 327 -90 380 -173 42
-66 50 -102 50 -226 l0 -108 52 3 52 3 37 217 c20 119 39 234 43 256 6 38 4
41 -27 51 -17 7 -153 39 -301 71 l-269 60 -186 -1 c-102 -1 -220 -7 -261 -14z
m1978 -465 c151 -20 278 -81 395 -190 131 -123 193 -242 237 -460 10 -52 15
-99 11 -103 -15 -15 -136 -28 -201 -21 -177 18 -351 108 -511 263 -72 69 -79
74 -80 51 -4 -62 4 -100 37 -168 67 -138 203 -254 359 -308 72 -25 97 -28 248
-32 l167 -4 0 -52 c0 -72 -26 -236 -51 -320 -61 -206 -186 -366 -350 -444
-172 -83 -351 -93 -533 -30 -228 79 -376 245 -470 529 -60 181 -71 252 -70
464 0 175 2 198 28 290 42 154 104 274 184 354 146 145 365 211 600 181z
m1633 -518 c43 -106 79 -197 79 -202 0 -5 -19 -3 -42 5 -24 8 -89 28 -145 45
-66 20 -103 37 -103 46 0 7 13 46 29 86 15 40 40 106 56 146 15 40 31 72 37
70 5 -2 45 -90 89 -196z"/>
<path d="M6266 4283 c18 -73 33 -83 124 -83 57 0 120 -38 147 -90 l23 -43 -1
-601 c-1 -692 -12 -1334 -23 -1357 -11 -25 -52 -40 -156 -58 l-95 -16 -3 -47
-3 -48 355 0 356 0 0 49 0 49 -72 12 c-119 18 -125 20 -147 44 -20 21 -24 42
-36 222 -17 239 -21 1599 -5 1589 8 -5 733 -909 965 -1204 50 -63 126 -159
170 -215 44 -56 148 -189 232 -296 168 -217 191 -242 246 -265 43 -18 178 -48
185 -41 2 3 8 507 13 1120 5 776 11 1121 19 1135 17 33 66 52 166 64 74 8 94
14 89 25 -3 7 -5 29 -5 48 l0 34 -361 0 -361 0 7 -47 c4 -27 8 -49 9 -50 1 -1
38 -6 84 -12 101 -13 137 -30 151 -73 23 -75 36 -433 36 -1028 0 -333 -3 -617
-7 -631 -19 -66 -1 -85 -558 611 -285 356 -586 743 -819 1053 l-134 177 -299
0 -298 0 6 -27z"/>
<path d="M5574 4239 l-19 -22 33 17 c34 18 40 26 19 26 -8 0 -22 -10 -33 -21z"/>
<path d="M5360 4161 c-29 -8 -42 -51 -15 -51 24 0 72 27 78 45 7 16 -17 19
-63 6z"/>
<path d="M14 4079 c-8 -14 11 -29 118 -93 46 -27 99 -59 118 -71 170 -109 236
-146 254 -143 17 2 29 25 59 108 21 58 41 112 43 122 7 20 -17 33 -73 41 -49
6 -61 -5 -42 -39 11 -22 10 -27 -9 -46 l-22 -22 -107 34 c-60 19 -135 45 -168
58 -74 29 -159 62 -162 62 -1 0 -5 -5 -9 -11z"/>
<path d="M9434 4015 c-335 -61 -574 -242 -724 -549 -71 -145 -101 -267 -107
-440 -7 -164 5 -258 53 -434 54 -198 127 -335 239 -447 119 -119 246 -184 465
-237 85 -20 396 -18 487 4 227 56 394 149 544 305 174 181 278 417 294 665 10
157 11 160 48 156 l32 -3 -3 -440 c-1 -242 -5 -455 -8 -473 -7 -42 -36 -60
-115 -72 -140 -21 -129 -16 -129 -60 l0 -40 400 0 400 0 0 39 c0 44 -2 45
-112 56 -84 9 -123 32 -137 82 -17 58 -15 903 2 903 6 0 35 -17 62 -38 82 -62
272 -309 576 -746 105 -152 200 -283 212 -291 17 -12 59 -15 209 -15 l188 0 0
45 c0 42 -1 44 -34 51 -57 10 -108 64 -273 291 -87 118 -198 270 -248 336
-123 168 -205 289 -205 302 0 7 37 24 83 39 45 16 109 42 142 60 85 45 185
142 223 218 37 73 94 260 123 403 30 151 17 145 299 145 l230 0 7 -27 c5 -16
8 -399 8 -853 0 -770 -1 -828 -17 -853 -25 -37 -43 -45 -147 -58 l-91 -13 0
-43 0 -43 401 0 400 0 -3 42 -3 42 -105 17 c-137 23 -145 31 -157 166 -11 133
-9 1461 3 1543 l9 65 248 3 c193 2 248 0 252 -10 2 -7 12 -76 22 -153 l18
-140 42 -3 c40 -3 42 -2 47 30 3 18 8 76 11 128 3 52 8 121 12 153 l6 57 57 0
c43 0 65 -6 91 -23 64 -43 63 -34 67 -742 3 -675 -5 -985 -29 -1023 -18 -29
-50 -41 -148 -55 -45 -7 -82 -15 -81 -19 0 -5 0 -24 0 -43 l0 -35 403 0 403 0
-5 43 -6 42 -75 12 c-119 19 -150 31 -162 61 -12 32 -30 767 -19 808 5 19 17
31 37 38 36 12 949 14 1016 3 28 -5 52 -15 57 -25 14 -27 -5 -806 -20 -830
-19 -30 -45 -39 -153 -53 l-97 -13 3 -40 3 -41 405 0 405 0 0 40 0 39 -92 17
c-105 20 -126 29 -151 66 -16 25 -17 83 -20 793 -2 499 1 793 8 845 14 110 27
122 155 141 54 8 101 17 103 19 2 2 1 20 -2 40 l-7 35 -404 0 -405 0 0 -22 c0
-59 7 -65 85 -71 87 -8 151 -31 167 -61 13 -24 34 -626 23 -682 -4 -26 -12
-36 -33 -41 -15 -5 -252 -8 -527 -8 -374 1 -507 4 -529 13 l-29 13 6 336 c8
361 8 364 61 398 13 9 63 23 110 32 l86 16 0 38 0 39 -1185 0 -1185 0 0 -86 0
-87 -49 46 c-26 25 -72 57 -101 72 -118 60 -99 58 -690 63 -300 2 -569 1 -598
-3 l-53 -7 3 -41 3 -42 85 -11 c159 -21 158 -19 167 -337 3 -134 3 -255 -1
-270 -5 -23 -12 -27 -41 -27 -18 0 -36 4 -40 9 -3 6 -19 56 -36 112 -16 55
-44 129 -61 163 -127 253 -372 428 -677 481 -103 18 -377 18 -477 0z m303
-126 c297 -41 532 -268 609 -588 21 -90 17 -100 -62 -124 -387 -119 -676 -48
-845 209 -50 76 -57 68 -40 -43 21 -134 126 -294 236 -358 143 -84 390 -89
651 -15 114 33 108 39 101 -102 -4 -98 -13 -151 -42 -258 -84 -315 -210 -468
-450 -547 -68 -22 -98 -26 -200 -27 -137 0 -210 16 -320 70 -100 49 -177 113
-245 205 -128 173 -193 366 -221 657 -18 186 3 343 69 507 121 304 412 462
759 414z m1696 -40 c229 -32 337 -148 337 -363 0 -257 -190 -436 -462 -436
-83 0 -89 3 -191 97 l-57 52 0 314 0 314 83 17 c45 10 87 20 92 21 14 4 115
-4 198 -16z"/>
<path d="M23400 3750 l0 -240 44 0 c53 0 50 -5 70 141 18 124 29 154 66 169
31 13 453 10 467 -3 10 -11 11 -1672 0 -1709 -10 -36 -49 -55 -139 -68 -123
-18 -118 -15 -118 -60 l0 -40 400 0 400 0 0 43 0 44 -90 11 c-104 13 -124 21
-147 65 -17 30 -18 88 -18 842 0 446 4 827 8 848 l8 37 186 0 c174 0 313 -13
313 -29 0 -4 9 -72 20 -151 11 -79 20 -144 20 -144 0 -1 20 0 43 2 l44 4 11
131 c7 73 12 180 12 240 l0 107 -800 0 -800 0 0 -240z"/>
<path d="M5628 3695 c-2 -3 -29 -9 -58 -15 -62 -12 -80 -24 -62 -42 12 -12 22
-10 136 25 49 15 60 37 19 37 -17 0 -32 -2 -35 -5z"/>
<path d="M365 3409 c-9 -14 -2 -20 31 -22 20 -1 29 3 32 16 3 13 -3 17 -27 17
-16 0 -33 -5 -36 -11z"/>
<path d="M5582 3143 c3 -13 13 -18 37 -16 18 0 35 3 38 6 12 13 -11 27 -43 27
-28 0 -35 -3 -32 -17z"/>
<path d="M360 2895 c-10 -12 -9 -16 3 -21 17 -6 37 2 37 16 0 15 -29 19 -40 5z"/>
<path d="M105 2880 c-4 -6 12 -10 39 -10 25 0 46 5 46 10 0 6 -18 10 -39 10
-22 0 -43 -4 -46 -10z"/>
<path d="M5555 2630 c-8 -12 20 -24 35 -15 6 3 8 11 5 16 -8 12 -32 12 -40 -1z"/>
<path d="M412 2388 c-18 -18 -14 -28 12 -28 35 0 56 10 56 26 0 17 -51 19 -68
2z"/>
<path d="M180 2320 c-12 -8 -9 -10 12 -10 15 0 30 5 33 10 8 13 -25 13 -45 0z"/>
<path d="M5462 2258 c-19 -19 -14 -38 11 -38 13 0 39 -12 58 -26 37 -28 93
-54 115 -54 25 0 15 25 -18 44 -18 11 -56 34 -84 53 -56 36 -64 39 -82 21z"/>
<path d="M5426 2162 c-11 -19 -46 -119 -46 -134 0 -23 18 -27 295 -63 66 -8
152 -20 190 -26 78 -12 127 -10 132 7 7 20 -100 63 -272 110 -182 49 -195 54
-238 90 -29 24 -52 30 -61 16z"/>
<path d="M624 1906 c-8 -22 -2 -27 16 -16 12 7 12 12 3 21 -10 10 -14 9 -19
-5z"/>
<path d="M475 1851 c-19 -8 -64 -51 -53 -51 21 0 108 33 118 45 11 13 8 15
-16 14 -16 0 -38 -4 -49 -8z"/>
<path d="M5290 1627 c0 -16 117 -87 142 -87 10 0 18 3 18 6 0 17 -121 94 -147
94 -7 0 -13 -6 -13 -13z"/>
<path d="M880 1455 c0 -8 4 -15 9 -15 5 0 14 7 21 15 10 13 9 15 -9 15 -12 0
-21 -6 -21 -15z"/>
<path d="M739 1368 c-25 -26 -29 -34 -16 -36 17 -3 97 45 97 59 0 21 -51 7
-81 -23z"/>
<path d="M14103 1303 l-73 -4 0 -304 0 -305 80 0 80 0 0 310 c0 171 -3 309 -7
308 -5 -1 -41 -4 -80 -5z"/>
<path d="M16978 1302 l-78 -3 0 -239 0 -240 -190 0 -190 0 0 240 0 240 -74 0
-75 0 -1 -250 c-1 -227 1 -255 19 -295 10 -24 28 -48 39 -54 14 -7 117 -11
297 -11 275 0 277 0 295 23 34 40 41 111 38 357 l-3 235 -77 -3z"/>
<path d="M9723 1290 c-12 -5 -30 -21 -40 -36 -16 -24 -18 -56 -21 -229 -4
-219 3 -271 43 -311 l24 -24 277 2 277 3 21 28 c16 22 22 47 25 108 4 88 3 89
-85 103 l-41 7 -14 -58 -14 -58 -175 0 -175 0 0 175 0 175 176 3 c176 2 177 2
183 -20 3 -13 6 -36 6 -52 0 -29 0 -29 50 -22 84 11 90 18 90 104 0 105 -23
112 -337 111 -136 0 -258 -4 -270 -9z"/>
<path d="M10778 1293 c-17 -4 -18 -27 -18 -304 l0 -299 75 0 74 0 3 102 c3
102 3 103 31 116 58 28 92 10 212 -109 l109 -109 104 0 103 0 -36 44 c-20 24
-67 70 -105 102 -39 32 -70 61 -70 64 0 3 23 12 51 19 28 8 66 26 83 41 l31
28 0 114 c0 125 -12 169 -51 187 -24 11 -556 15 -596 4z m492 -183 l0 -70
-175 0 -175 0 0 70 0 70 175 0 175 0 0 -70z"/>
<path d="M11857 1293 c-4 -3 -7 -141 -7 -305 l0 -298 320 0 320 0 0 65 0 65
-240 0 -240 0 0 65 0 65 125 0 125 0 0 60 0 60 -125 0 -125 0 0 60 0 60 231 0
230 0 -2 55 -2 55 -302 0 c-166 0 -305 -3 -308 -7z"/>
<path d="M12880 996 l0 -306 252 0 252 0 65 33 c131 65 188 159 178 294 -9
121 -64 215 -154 259 -34 17 -67 19 -315 22 l-278 3 0 -305z m462 183 c79 -20
128 -88 128 -176 0 -73 -32 -121 -105 -158 -57 -29 -62 -30 -186 -28 -71 1
-133 4 -139 8 -16 10 -13 340 3 353 24 20 221 20 299 1z"/>
<path d="M14560 1245 l0 -55 135 0 135 0 0 -250 0 -250 78 0 77 0 0 247 0 248
138 3 137 3 0 54 0 55 -350 0 -350 0 0 -55z"/>
<path d="M17520 995 l0 -305 70 0 70 0 0 185 c0 102 2 185 5 185 18 0 74 -39
171 -120 60 -51 136 -115 169 -143 33 -27 68 -63 78 -78 18 -27 23 -29 88 -29
l69 0 0 305 0 305 -70 0 -70 0 0 -186 0 -185 -31 18 c-17 10 -109 83 -205 163
-213 176 -234 190 -296 190 l-48 0 0 -305z"/>
<path d="M18690 995 l0 -305 75 0 75 0 0 305 0 305 -75 0 -75 0 0 -305z"/>
<path d="M19323 1290 c-12 -5 -26 -17 -31 -27 -16 -31 -22 -452 -7 -496 28
-81 9 -77 365 -77 356 0 337 -4 366 77 16 47 19 408 4 465 -19 68 -18 68 -365
67 -170 0 -320 -4 -332 -9z m545 -287 l-3 -178 -215 0 -215 0 -3 178 -2 177
220 0 220 0 -2 -177z"/>
<path d="M20460 995 l0 -305 70 0 70 0 0 184 c0 158 2 185 16 190 10 4 86 -55
237 -184 l221 -190 58 0 58 0 0 305 0 305 -75 0 -75 0 0 -174 c0 -96 -4 -177
-9 -180 -5 -4 -99 69 -208 160 -109 92 -212 173 -230 181 -18 7 -55 13 -83 13
l-50 0 0 -305z"/>
<path d="M4980 1197 c0 -12 118 -117 141 -125 25 -9 3 25 -51 79 -58 57 -90
73 -90 46z"/>
<path d="M1167 1034 c-26 -26 -43 -61 -34 -70 8 -9 74 55 80 76 7 28 -15 25
-46 -6z"/>
<path d="M1082 929 c-40 -39 -45 -75 -6 -38 27 25 48 58 42 65 -3 2 -19 -10
-36 -27z"/>
<path d="M4530 923 c0 -9 31 -58 70 -108 129 -168 164 -180 53 -18 -94 139
-97 142 -110 143 -7 0 -13 -8 -13 -17z"/>
<path d="M1600 725 c-13 -15 -100 -165 -100 -172 0 -27 78 65 114 136 19 36 9
64 -14 36z"/>
<path d="M1988 586 c-9 -8 -24 -94 -41 -232 -16 -121 -33 -242 -39 -271 -13
-61 -6 -92 17 -73 8 7 44 60 78 119 35 58 103 167 150 242 48 75 87 146 87
157 0 25 -12 28 -115 37 -44 4 -90 13 -102 21 -18 11 -24 12 -35 0z"/>
<path d="M4132 558 c15 -43 77 -142 85 -134 6 6 -16 72 -44 134 -9 19 -23 32
-34 32 -16 0 -17 -4 -7 -32z"/>
<path d="M3630 405 c0 -34 33 -145 46 -156 20 -17 18 52 -4 115 -17 49 -42 73
-42 41z"/>
<path d="M2571 327 c-13 -78 -14 -157 -2 -157 13 0 34 102 35 164 1 74 -20 69
-33 -7z"/>
<path d="M3111 366 c-12 -15 -11 -66 5 -193 10 -83 24 -42 24 70 0 119 -7 149
-29 123z"/>
</g>
</svg>
