<?xml version="1.0" standalone="no"?>
<!DOCTYPE svg PUBLIC "-//W3C//DTD SVG 20010904//EN"
 "http://www.w3.org/TR/2001/REC-SVG-20010904/DTD/svg10.dtd">
<svg version="1.0" xmlns="http://www.w3.org/2000/svg"
 width="600.000000pt" height="273.000000pt" viewBox="0 0 600.000000 273.000000"
 preserveAspectRatio="xMidYMid meet">
<g transform="translate(0.000000,273.000000) scale(0.100000,-0.100000)"
fill="#000000" stroke="none">
<path d="M493 2715 c-119 -33 -197 -94 -242 -189 -40 -83 -55 -170 -48 -269
12 -160 63 -268 278 -592 172 -259 202 -310 224 -389 21 -72 16 -174 -10 -230
-46 -96 -187 -79 -216 27 -6 23 -14 89 -17 147 l-7 105 -120 -2 c-65 -1 -126
-5 -133 -8 -20 -7 -11 -249 12 -322 33 -104 127 -204 226 -239 25 -8 82 -18
126 -21 190 -13 338 67 395 216 33 84 38 239 10 348 -42 170 -101 280 -306
578 -145 210 -186 291 -193 384 -5 82 18 173 50 196 34 23 92 19 126 -10 35
-29 52 -87 52 -177 0 -94 -2 -93 136 -78 66 6 123 14 128 17 12 8 -1 197 -18
261 -31 112 -103 195 -205 233 -73 27 -180 33 -248 14z"/>
<path d="M1145 2688 c-3 -7 -4 -443 -3 -968 l3 -955 287 -3 288 -2 4 22 c13
59 26 212 19 219 -5 5 -80 10 -168 11 l-160 3 -3 309 c-2 241 1 311 10 318 7
4 59 8 116 8 73 0 104 4 107 13 10 25 31 217 25 226 -3 6 -62 12 -130 13
l-125 3 0 265 0 265 165 5 c91 3 170 8 176 12 13 9 40 221 30 237 -11 17 -635
15 -641 -1z"/>
<path d="M2136 2691 c-10 -15 -266 -1912 -260 -1922 3 -5 61 -9 129 -9 l123 0
6 38 c3 20 10 84 16 142 17 178 7 158 130 240 60 40 116 70 123 67 10 -4 20
-66 37 -224 13 -120 27 -228 31 -240 8 -22 13 -23 134 -23 l125 0 0 28 c0 15
-36 302 -80 637 -44 336 -99 754 -121 930 -23 176 -46 326 -52 333 -11 14
-332 18 -341 3z m189 -593 c12 -88 55 -494 55 -520 0 -23 -12 -36 -70 -74 -87
-58 -104 -55 -96 18 4 29 17 161 31 293 34 333 33 325 55 325 14 0 20 -10 25
-42z"/>
<path d="M2636 2684 c-3 -9 -6 -62 -6 -119 0 -127 -2 -125 139 -125 l101 0 0
-824 c0 -453 3 -831 6 -840 9 -24 259 -24 268 0 3 9 6 387 6 840 l0 824 108 0
c71 0 112 4 120 12 13 13 17 202 6 232 -5 14 -48 16 -374 16 -326 0 -369 -2
-374 -16z"/>
<path d="M3517 2693 c-4 -3 -7 -57 -7 -119 0 -136 -3 -133 126 -133 49 0 95 0
101 0 10 -1 13 -179 15 -838 l3 -838 133 -3 c121 -2 132 -1 132 15 0 10 0 383
0 828 0 446 4 816 9 824 6 10 34 13 107 12 55 -1 105 3 112 8 10 6 13 38 13
119 0 61 -2 116 -6 122 -7 11 -727 15 -738 3z"/>
<path d="M4415 2688 c-3 -7 -4 -443 -3 -968 l3 -955 289 -3 c225 -2 291 1 298
10 10 17 10 209 0 225 -6 9 -54 13 -162 15 l-155 3 -5 840 -5 840 -128 3 c-96
2 -129 -1 -132 -10z"/>
<path d="M5155 2688 c-3 -7 -4 -443 -3 -968 l3 -955 290 0 290 0 12 90 c6 50
12 105 12 123 l1 32 -158 0 c-110 0 -162 4 -170 12 -17 17 -17 599 0 616 8 8
49 12 120 12 59 0 108 1 108 3 0 2 7 54 15 116 8 62 12 117 9 122 -3 5 -58 9
-123 9 -88 0 -121 4 -130 14 -8 9 -11 88 -9 267 l3 254 166 3 c123 2 170 6
178 16 13 16 37 207 28 229 -6 15 -38 17 -322 17 -243 0 -317 -3 -320 -12z"/>
<path d="M93 359 c-80 -40 -116 -162 -74 -255 44 -96 165 -131 260 -73 42 26
49 46 22 72 -20 21 -22 21 -51 4 -84 -50 -160 -6 -160 93 0 77 75 123 140 85
47 -27 51 -27 71 -9 30 27 20 54 -30 81 -56 29 -122 30 -178 2z"/>
<path d="M598 374 c-5 -4 -8 -88 -8 -186 l0 -178 45 0 45 0 0 60 c0 51 3 60
18 60 11 -1 26 -21 44 -60 l27 -60 45 0 c26 0 46 2 46 5 0 3 -14 33 -31 67
l-31 61 26 21 c57 46 53 145 -6 188 -26 18 -49 23 -123 26 -49 2 -93 1 -97 -4z
m163 -84 c21 -12 25 -50 7 -68 -7 -7 -29 -12 -50 -12 l-38 0 0 45 c0 44 1 45
31 45 17 0 39 -5 50 -10z"/>
<path d="M1147 373 c-4 -3 -7 -87 -7 -185 l0 -178 125 0 125 0 0 40 0 40 -85
0 -85 0 0 30 c0 29 0 29 68 32 l67 3 3 38 3 37 -71 0 -71 0 3 33 3 32 83 3 82
3 0 39 0 40 -118 0 c-65 0 -122 -3 -125 -7z"/>
<path d="M1687 373 c-4 -3 -7 -87 -7 -185 l0 -178 95 0 c76 0 104 4 134 20 81
41 115 162 69 249 -27 53 -60 79 -114 91 -46 11 -168 13 -177 3z m200 -108
c27 -31 31 -91 8 -134 -17 -33 -33 -41 -86 -41 l-39 0 0 106 0 107 47 -6 c35
-4 53 -12 70 -32z"/>
<path d="M2275 368 c-3 -8 -4 -90 -3 -183 l3 -170 43 -3 42 -3 -2 183 -3 183
-38 3 c-24 2 -39 -1 -42 -10z"/>
<path d="M2620 341 l0 -40 48 -3 47 -3 3 -142 3 -143 39 0 40 0 0 145 0 145
51 0 50 0 -3 38 -3 37 -137 3 -138 3 0 -40z"/>
<path d="M3518 368 c-10 -26 -9 -184 2 -238 7 -35 20 -64 37 -82 72 -76 215
-46 243 50 6 21 10 90 8 157 l-3 120 -34 3 c-20 2 -37 -2 -42 -10 -5 -7 -9
-68 -9 -135 0 -115 -1 -123 -22 -137 -29 -21 -41 -20 -69 3 -22 18 -24 28 -29
148 l-5 128 -36 3 c-23 2 -38 -2 -41 -10z"/>
<path d="M4100 195 l0 -185 45 0 44 0 3 92 3 93 96 -92 c53 -51 101 -93 108
-93 8 0 11 48 9 183 l-3 182 -40 0 -40 0 -5 -88 -5 -88 -97 90 c-53 50 -101
91 -107 91 -8 0 -11 -58 -11 -185z"/>
<path d="M4707 374 c-4 -4 -7 -88 -7 -186 l0 -178 45 0 45 0 -2 182 -3 183
-35 3 c-20 2 -39 0 -43 -4z"/>
<path d="M5165 366 c-45 -20 -82 -69 -94 -125 -26 -121 39 -222 151 -237 125
-17 219 80 205 211 -7 69 -34 114 -85 143 -46 25 -129 29 -177 8z m149 -97
c52 -62 26 -169 -45 -184 -85 -19 -148 81 -104 165 19 37 41 49 87 50 28 0 42
-7 62 -31z"/>
<path d="M5690 195 l0 -185 45 0 45 0 0 90 c0 50 3 90 7 90 3 0 48 -40 99 -90
51 -49 98 -90 104 -90 6 0 10 63 10 185 l0 185 -40 0 c-22 0 -40 -3 -41 -7 0
-5 -1 -45 -1 -90 -1 -46 -4 -83 -6 -83 -3 0 -49 41 -103 90 -53 50 -102 90
-108 90 -8 0 -11 -57 -11 -185z"/>
</g>
</svg>
